<svg width="28" height="28" viewBox="0 0 28 28" fill="none" xmlns="http://www.w3.org/2000/svg">
<path d="M12.8333 2.33301L21.3477 4.99301C21.5851 5.06714 21.7927 5.21524 21.94 5.41568C22.0874 5.61612 22.1668 5.85841 22.1667 6.10717V8.16634H24.5C24.8094 8.16634 25.1062 8.28926 25.325 8.50805C25.5438 8.72684 25.6667 9.02359 25.6667 9.33301V11.6663H10.5V9.33301C10.5 9.02359 10.6229 8.72684 10.8417 8.50805C11.0605 8.28926 11.3572 8.16634 11.6667 8.16634H19.8333V6.96467L12.8333 4.77601L5.83333 6.96467V15.6027C5.83317 16.3169 5.99696 17.0217 6.31209 17.6627C6.62723 18.3037 7.08529 18.8638 7.651 19.2998L7.8715 19.4585L12.8333 22.843L17.2457 19.833H11.6667C11.3572 19.833 11.0605 19.7101 10.8417 19.4913C10.6229 19.2725 10.5 18.9758 10.5 18.6663V13.9997H25.6667V18.6663C25.6667 18.9758 25.5438 19.2725 25.325 19.4913C25.1062 19.7101 24.8094 19.833 24.5 19.833L20.7433 19.8342C20.2918 20.4292 19.7435 20.9542 19.11 21.3858L12.8333 25.6663L6.55667 21.387C5.61461 20.7447 4.84371 19.882 4.311 18.8739C3.77828 17.8658 3.49988 16.7429 3.5 15.6027V6.10717C3.50014 5.85861 3.57967 5.61658 3.72699 5.41637C3.87431 5.21617 4.08173 5.06825 4.319 4.99417L12.8333 2.33301Z" fill="#5BB5A2"/>
</svg>
